<svg width="32" height="32" viewBox="0 0 32 32" fill="none" xmlns="http://www.w3.org/2000/svg">
<path d="M5.33337 9.33268C6.11983 10.1418 8.21301 13.3327 9.33337 13.3327C10.4537 13.3327 12.5469 10.1418 13.3334 9.33268M9.33337 11.9993V2.66602" stroke="#017FF4" stroke-linecap="round" stroke-linejoin="round"/>
<path d="M5.33337 17.3327V19.3916C5.33337 23.7183 5.33337 25.8816 6.5148 27.3469C6.75348 27.6429 7.02312 27.9125 7.31915 28.1512C8.78445 29.3327 10.9478 29.3327 15.2744 29.3327C16.2152 29.3327 16.6855 29.3327 17.1163 29.1807C17.2059 29.1491 17.2936 29.1127 17.3794 29.0717C17.7915 28.8745 18.124 28.542 18.7892 27.8768L25.1046 21.5615C25.8754 20.7907 26.2607 20.4053 26.4638 19.9152C26.6667 19.4252 26.6667 18.8801 26.6667 17.7901V13.3327C26.6667 8.30436 26.6667 5.79022 25.1046 4.22811C23.5426 2.66602 21.0283 2.66602 16 2.66602M17.3334 28.666V27.9993C17.3334 24.2281 17.3334 22.3425 18.505 21.1709C19.6766 19.9993 21.5622 19.9993 25.3334 19.9993H26" stroke="#017FF4" stroke-width="1.5" stroke-linecap="round" stroke-linejoin="round"/>
</svg>
